<?xml version="1.0" encoding="UTF-8" standalone="no"?>
<svg
   xmlns:dc="http://purl.org/dc/elements/1.1/"
   xmlns:cc="http://creativecommons.org/ns#"
   xmlns:rdf="http://www.w3.org/1999/02/22-rdf-syntax-ns#"
   xmlns:svg="http://www.w3.org/2000/svg"
   xmlns="http://www.w3.org/2000/svg"
   viewBox="0 0 257.33334 257.33334"
   height="257.33334"
   width="257.33334"
   xml:space="preserve"
   id="svg2"
   version="1.1"><metadata
     id="metadata8"><rdf:RDF><cc:Work
         rdf:about=""><dc:format>image/svg+xml</dc:format><dc:type
           rdf:resource="http://purl.org/dc/dcmitype/StillImage" /></cc:Work></rdf:RDF></metadata><defs
     id="defs6" /><g
     transform="matrix(1.3333333,0,0,-1.3333333,0,257.33333)"
     id="g10"><g
       transform="scale(0.1)"
       id="g12"><path
         id="path14"
         style="fill:#ffffff;fill-opacity:1;fill-rule:evenodd;stroke:none"
         d="M 0,1927.56 H 1927.56 V 0 H 0 v 1927.56" /><path
         id="path16"
         style="fill:#231f20;fill-opacity:1;fill-rule:nonzero;stroke:none"
         d="m 963.77,162.574 c -281.602,0 -509.891,358.707 -509.891,801.207 0,442.489 228.289,801.199 509.891,801.199 281.63,0 509.91,-358.71 509.91,-801.199 0,-442.5 -228.28,-801.207 -509.91,-801.207 z m 1.859,1567.086 c -260.824,0 -472.27,-342.48 -472.27,-764.953 0,-422.48 211.446,-764.949 472.27,-764.949 260.821,0 472.271,342.469 472.271,764.949 0,422.473 -211.45,764.953 -472.271,764.953 v 0" /><path
         id="path18"
         style="fill:#231f20;fill-opacity:1;fill-rule:nonzero;stroke:none"
         d="m 1219.86,1266.62 c -184.31,8.67 -220.063,23.85 -222.251,-26.03 65.041,3.27 191.871,11.94 198.391,-131.16 6.51,-143.086 -166.94,-111.657 -173.45,-110.571 53.12,-48.785 188.63,-209.222 320.88,-246.078 -142,9.731 -174.11,-15.183 -348.641,226.571 0,-74.789 0,-247.184 0,-276.446 -2.16,-50.961 63.531,-123.593 148.091,-123.593 -21.68,-18.434 -93.23,-30.348 -139.84,-8.649 -27.099,-45.559 -56.38,-249.351 -197.31,-239.594 -92.152,31.453 6.504,147.426 52.036,42.282 27.117,21.671 67.222,57.445 67.222,214.628 0,157.208 0,390.278 0,390.278 -79.14,-137.684 -178.879,-201.637 -231.996,-221.153 -16.254,-4.324 -117.082,43.368 -125.746,49.879 146.332,-2.183 182.117,26.024 315.461,187.528 -43.363,-5.414 -164.789,16.268 -164.789,126.848 0,111.64 100.824,117.08 202.723,117.08 0,40.11 -4.336,52.03 -234.157,24.93 -14.093,-3.24 -63.964,-66.13 -127.921,-69.37 33.613,24.92 98.64,100.81 105.167,134.41 49.848,-11.91 192.954,-31.43 254.735,-22.75 0,53.11 0,62.86 0,80.21 34.691,1.08 44.465,14.09 76.984,67.22 -1.082,-53.13 -1.082,-146.37 -1.082,-146.37 0,0 200.543,-7.59 266.673,22.78 28.18,-52.04 86.73,-140.94 130.08,-175.62 -70.45,33.59 -166.94,105.14 -171.26,112.74 z m -297.044,-50.96 c -75.902,0 -125.753,1.08 -125.753,-88.88 0,-89.98 44.437,-102.99 125.753,-102.99 0,17.34 0,164.77 0,191.87 z m 72.633,-197.29 c 62.871,0 126.841,-5.42 126.841,102.99 0,108.4 -72.64,97.56 -126.841,97.56 0,-54.2 0,-148.51 0,-200.55 z m 146.901,347.97 c -8.7,0 -15.74,7.05 -15.74,15.73 0,8.69 7.04,15.71 15.74,15.71 8.67,0 15.71,-7.02 15.71,-15.71 0,-8.68 -7.04,-15.73 -15.71,-15.73 z m -27.1,32.54 c -8.7,0 -15.75,7.04 -15.75,15.72 0,8.67 7.05,15.71 15.75,15.71 8.67,0 15.71,-7.04 15.71,-15.71 0,-8.68 -7.04,-15.72 -15.71,-15.72 z m -5.96,-18.43 c 0,-8.99 -7.3,-16.25 -16.27,-16.25 -9,0 -16.27,7.26 -16.27,16.25 0,8.98 7.27,16.27 16.27,16.27 8.97,0 16.27,-7.29 16.27,-16.27 z m -160.45,74.81 c -17.363,15.16 -58.543,65.03 35.754,94.31 22.766,10.82 35.766,16.25 50.956,30.34 0,-42.26 -72.62,-70.46 -86.71,-124.65 z M 785.672,587.98 c -8.672,0 -15.715,7.043 -15.715,15.743 0,8.668 7.043,15.711 15.715,15.711 8.683,0 15.711,-7.043 15.711,-15.711 0,-8.7 -7.028,-15.743 -15.711,-15.743 z m 3.254,50.961 c -8.078,0 -14.633,6.571 -14.633,14.633 0,8.102 6.555,14.641 14.633,14.641 8.082,0 14.633,-6.539 14.633,-14.641 0,-8.062 -6.551,-14.633 -14.633,-14.633 z m 24.402,1.086 c 7.168,0 13.012,-5.836 13.012,-13.004 0,-7.187 -5.844,-13.019 -13.012,-13.019 -7.187,0 -13.012,5.832 -13.012,13.019 0,7.168 5.825,13.004 13.012,13.004 z m -57.476,4.321 c 8.398,0 15.187,-6.785 15.187,-15.157 0,-8.398 -6.789,-15.187 -15.187,-15.187 -8.372,0 -15.157,6.789 -15.157,15.187 0,8.372 6.785,15.157 15.157,15.157 v 0" /></g></g></svg>